<svg width="16" height="16" viewBox="0 0 16 16" fill="none" xmlns="http://www.w3.org/2000/svg">
<g clip-path="url(#clip0_258_187)">
<path d="M8.00194 9.18356C8.64594 9.18356 9.16794 8.6615 9.16794 8.01756C9.16794 7.37362 8.64594 6.85156 8.00194 6.85156C7.35794 6.85156 6.83594 7.37362 6.83594 8.01756C6.83594 8.6615 7.358 9.18356 8.00194 9.18356Z" fill="#00D8FF"/>
<path d="M8.00012 5.64844C9.56562 5.64844 11.0199 5.87306 12.1165 6.25063C13.4377 6.70544 14.25 7.39487 14.25 8.01919C14.25 8.66975 13.3891 9.40219 11.9703 9.87225C10.8977 10.2276 9.48619 10.4131 8.00012 10.4131C6.4765 10.4131 5.03369 10.239 3.94894 9.86831C2.57656 9.39925 1.75 8.65737 1.75 8.01919C1.75 7.39994 2.52562 6.71581 3.82825 6.26169C4.92887 5.87794 6.41906 5.64844 7.99988 5.64844H8.00012Z" stroke="#00D8FF" stroke-width="0.556938"/>
<path d="M5.93668 6.83987C6.7188 5.48375 7.63986 4.33612 8.51474 3.57487C9.56874 2.65756 10.5719 2.29831 11.1126 2.61012C11.6762 2.93512 11.8806 4.04687 11.5791 5.51075C11.3512 6.61744 10.8066 7.93281 10.0642 9.22019C9.30299 10.5401 8.43143 11.7029 7.56849 12.4572C6.47655 13.4117 5.42086 13.7571 4.86805 13.4383C4.33161 13.1292 4.12649 12.1154 4.38386 10.7601C4.6013 9.61487 5.14699 8.20931 5.93643 6.83987H5.93668Z" stroke="#00D8FF" stroke-width="0.556938"/>
<path d="M5.93536 9.22268C5.15105 7.86806 4.61705 6.49668 4.39418 5.35856C4.12586 3.98725 4.31555 2.93881 4.85586 2.62606C5.41893 2.30006 6.48411 2.67818 7.60174 3.67056C8.44674 4.42081 9.31443 5.54937 10.059 6.8355C10.8224 8.15412 11.3945 9.49006 11.6171 10.6143C11.8987 12.0371 11.6707 13.1241 11.1184 13.4438C10.5826 13.7541 9.60186 13.4256 8.55618 12.5257C7.67268 11.7655 6.72743 10.5908 5.93536 9.22268Z" stroke="#00D8FF" stroke-width="0.556938"/>
</g>
<defs>
<clipPath id="clip0_258_187">
<rect width="16" height="16" fill="white"/>
</clipPath>
</defs>
</svg>
